{
  "accessors": [
    {
      "bufferView": 2,
      "componentType": 5126,
      "count": 24,
      "max": [
        1.0,
        1.0,
        1.0
      ],
      "min": [
        -1.0,
        -1.0,
        -1.0
      ],
      "type": "VEC3"
    },
    {
      "bufferView": 2,
      "byteOffset": 288,
      "componentType": 5126,
      "count": 24,
      "max": [
        1.0,
        1.0,
        1.0
      ],
      "min": [
        -1.0,
        -1.0,
        -1.0
      ],
      "type": "VEC3"
    },
    {
      "bufferView": 1,
      "componentType": 5126,
      "count": 24,
      "max": [
        0.7499567270278931,
        0.9999133944511414
      ],
      "min": [
        8.658754813950509e-05,
        8.660554885864258e-05
      ],
      "type": "VEC2"
    },
    {
      "bufferView": 0,
      "componentType": 5125,
      "count": 36,
      "type": "SCALAR"
    },
    {
      "bufferView": 2,
      "byteOffset": 576,
      "componentType": 5126,
      "count": 65532,
      "max": [
        2.1558640003204346,
        2.6344213485717773,
        2.1264755725860596
      ],
      "min": [
        -2.5868279933929443,
        -2.3643851280212402,
        -1.5353364944458008
      ],
      "type": "VEC3"
    },
    {
      "bufferView": 2,
      "byteOffset": 786960,
      "componentType": 5126,
      "count": 65532,
      "max": [
        1.0,
        1.0,
        1.0
      ],
      "min": [
        -1.0,
        -1.0,
        -1.0
      ],
      "type": "VEC3"
    },
    {
      "bufferView": 1,
      "byteOffset": 192,
      "componentType": 5126,
      "count": 65532,
      "max": [
        0.99965500831604,
        0.9995859861373901
      ],
      "min": [
        0.0003539999888744205,
        0.0002989768981933594
      ],
      "type": "VEC2"
    },
    {
      "bufferView": 0,
      "byteOffset": 144,
      "componentType": 5125,
      "count": 269607,
      "type": "SCALAR"
    },
    {
      "bufferView": 2,
      "byteOffset": 1573344,
      "componentType": 5126,
      "count": 65532,
      "max": [
        2.1548571586608887,
        2.626826286315918,
        2.076157569885254
      ],
      "min": [
        -2.6035659313201904,
        -2.368480682373047,
        -1.5353364944458008
      ],
      "type": "VEC3"
    },
    {
      "bufferView": 2,
      "byteOffset": 2359728,
      "componentType": 5126,
      "count": 65532,
      "max": [
        0.9999310374259949,
        0.9999070167541504,
        0.9999993443489075
      ],
      "min": [
        -0.9999759197235107,
        -0.9999874830245972,
        -0.9999957084655762
      ],
      "type": "VEC3"
    },
    {
      "bufferView": 1,
      "byteOffset": 524448,
      "componentType": 5126,
      "count": 65532,
      "max": [
        0.9997280240058899,
        0.9994829893112183
      ],
      "min": [
        0.0002770000137388706,
        0.00027501583099365234
      ],
      "type": "VEC2"
    },
    {
      "bufferView": 0,
      "byteOffset": 1078572,
      "componentType": 5125,
      "count": 242829,
      "type": "SCALAR"
    },
    {
      "bufferView": 2,
      "byteOffset": 3146112,
      "componentType": 5126,
      "count": 65533,
      "max": [
        2.1558640003204346,
        2.631047248840332,
        2.106494665145874
      ],
      "min": [
        -2.5868279933929443,
        -2.356700897216797,
        -1.5353364944458008
      ],
      "type": "VEC3"
    },
    {
      "bufferView": 2,
      "byteOffset": 3932508,
      "componentType": 5126,
      "count": 65533,
      "max": [
        0.9996010661125183,
        0.999988853931427,
        0.999991238117218
      ],
      "min": [
        -0.9999853372573853,
        -0.9999669790267944,
        -0.9996748566627502
      ],
      "type": "VEC3"
    },
    {
      "bufferView": 1,
      "byteOffset": 1048704,
      "componentType": 5126,
      "count": 65533,
      "max": [
        0.9997090101242065,
        0.9993969798088074
      ],
      "min": [
        0.0002809999859891832,
        0.00026297569274902344
      ],
      "type": "VEC2"
    },
    {
      "bufferView": 0,
      "byteOffset": 2049888,
      "componentType": 5125,
      "count": 207360,
      "type": "SCALAR"
    },
    {
      "bufferView": 2,
      "byteOffset": 4718904,
      "componentType": 5126,
      "count": 65532,
      "max": [
        2.155149221420288,
        2.631464958190918,
        2.1264755725860596
      ],
      "min": [
        -2.583498001098633,
        -2.363269805908203,
        -1.5339925289154053
      ],
      "type": "VEC3"
    },
    {
      "bufferView": 2,
      "byteOffset": 5505288,
      "componentType": 5126,
      "count": 65532,
      "max": [
        0.9999310970306396,
        0.9999956488609314,
        0.9999993443489075
      ],
      "min": [
        -0.9999838471412659,
        -0.9999669790267944,
        -0.9999770522117615
      ],
      "type": "VEC3"
    },
    {
      "bufferView": 1,
      "byteOffset": 1572968,
      "componentType": 5126,
      "count": 65532,
      "max": [
        0.9997410178184509,
        0.9996060132980347
      ],
      "min": [
        0.00027799999224953353,
        0.00026100873947143555
      ],
      "type": "VEC2"
    },
    {
      "bufferView": 0,
      "byteOffset": 2879328,
      "componentType": 5125,
      "count": 168519,
      "type": "SCALAR"
    },
    {
      "bufferView": 2,
      "byteOffset": 6291672,
      "componentType": 5126,
      "count": 65534,
      "max": [
        2.4621801376342773,
        2.6338319778442383,
        2.124288558959961
      ],
      "min": [
        -2.7206997871398926,
        -2.3741750717163086,
        -1.5346285104751587
      ],
      "type": "VEC3"
    },
    {
      "bufferView": 2,
      "byteOffset": 7078080,
      "componentType": 5126,
      "count": 65534,
      "max": [
        1.0,
        0.9999924302101135,
        1.0
      ],
      "min": [
        -1.0,
        -1.0,
        -1.0
      ],
      "type": "VEC3"
    },
    {
      "bufferView": 1,
      "byteOffset": 2097224,
      "componentType": 5126,
      "count": 65534,
      "max": [
        0.9997220039367676,
        0.9996039867401123
      ],
      "min": [
        0.00031400000443682075,
        0.0002620220184326172
      ],
      "type": "VEC2"
    },
    {
      "bufferView": 0,
      "byteOffset": 3553404,
      "componentType": 5125,
      "count": 126063,
      "type": "SCALAR"
    },
    {
      "bufferView": 2,
      "byteOffset": 7864488,
      "componentType": 5126,
      "count": 65533,
      "max": [
        2.3724842071533203,
        2.6344213485717773,
        2.1264755725860596
      ],
      "min": [
        -2.7899928092956543,
        -2.3669018745422363,
        -1.525402545928955
      ],
      "type": "VEC3"
    },
    {
      "bufferView": 2,
      "byteOffset": 8650884,
      "componentType": 5126,
      "count": 65533,
      "max": [
        1.0,
        1.0,
        1.0
      ],
      "min": [
        -1.0,
        -1.0,
        -1.0
      ],
      "type": "VEC3"
    },
    {
      "bufferView": 1,
      "byteOffset": 2621496,
      "componentType": 5126,
      "count": 65533,
      "max": [
        0.9997400045394897,
        0.9995530247688293
      ],
      "min": [
        0.00026199998683296144,
        0.0002599954605102539
      ],
      "type": "VEC2"
    },
    {
      "bufferView": 0,
      "byteOffset": 4057656,
      "componentType": 5125,
      "count": 97152,
      "type": "SCALAR"
    },
    {
      "bufferView": 2,
      "byteOffset": 9437280,
      "componentType": 5126,
      "count": 12370,
      "max": [
        2.1534080505371094,
        2.631047248840332,
        2.100914478302002
      ],
      "min": [
        -2.586587905883789,
        -2.3643851280212402,
        -1.52463960647583
      ],
      "type": "VEC3"
    },
    {
      "bufferView": 2,
      "byteOffset": 9585720,
      "componentType": 5126,
      "count": 12370,
      "max": [
        0.9998745322227478,
        0.9999887943267822,
        0.9997567534446716
      ],
      "min": [
        -0.9998487830162048,
        -0.9999669790267944,
        -0.9998470544815063
      ],
      "type": "VEC3"
    },
    {
      "bufferView": 1,
      "byteOffset": 3145760,
      "componentType": 5126,
      "count": 12370,
      "max": [
        0.9997069835662842,
        0.999439001083374
      ],
      "min": [
        0.00026500000967644155,
        0.000276029109954834
      ],
      "type": "VEC2"
    },
    {
      "bufferView": 0,
      "byteOffset": 4446264,
      "componentType": 5125,
      "count": 13659,
      "type": "SCALAR"
    }
  ],
  "asset": {
    "extras": {
      "author": "ffish.asia / floraZia.com (https://sketchfab.com/ffishAsia-and-floraZia)",
      "license": "CC-BY-NC-4.0 (http://creativecommons.org/licenses/by-nc/4.0/)",
      "source": "https://sketchfab.com/3d-models/black-benkei-crab-c-dehaani-11e0b52ea068433a9335a6385979c7bb",
      "title": "クロベンケイガニ 🦀 ♀ Black Benkei Crab, C. dehaani"
    },
    "generator": "Sketchfab-15.30.0",
    "version": "2.0"
  },
  "bufferViews": [
    {
      "buffer": 0,
      "byteLength": 4500900,
      "name": "floatBufferViews",
      "target": 34963
    },
    {
      "buffer": 0,
      "byteLength": 3244720,
      "byteOffset": 4500900,
      "byteStride": 8,
      "name": "floatBufferViews",
      "target": 34962
    },
    {
      "buffer": 0,
      "byteLength": 9734160,
      "byteOffset": 7745620,
      "byteStride": 12,
      "name": "floatBufferViews",
      "target": 34962
    }
  ],
  "buffers": [
    {
      "byteLength": 17479780,
      "uri": "scene.bin"
    }
  ],
  "extensionsUsed": [
    "KHR_materials_unlit"
  ],
  "images": [
    {
      "uri": "textures/Material.001_baseColor.jpeg"
    },
    {
      "uri": "textures/QS1458-W04-1-1_baseColor.jpeg"
    }
  ],
  "materials": [
    {
      "doubleSided": true,
      "extensions": {
        "KHR_materials_unlit": {}
      },
      "name": "Material.001",
      "pbrMetallicRoughness": {
        "baseColorTexture": {
          "index": 0
        },
        "metallicFactor": 0.0
      }
    },
    {
      "doubleSided": true,
      "extensions": {
        "KHR_materials_unlit": {}
      },
      "name": "QS1458-W04-1-1",
      "pbrMetallicRoughness": {
        "baseColorTexture": {
          "index": 1
        },
        "metallicFactor": 0.0
      }
    }
  ],
  "meshes": [
    {
      "name": "Object_0",
      "primitives": [
        {
          "attributes": {
            "NORMAL": 1,
            "POSITION": 0,
            "TEXCOORD_0": 2
          },
          "indices": 3,
          "material": 0,
          "mode": 4
        }
      ]
    },
    {
      "name": "Object_1",
      "primitives": [
        {
          "attributes": {
            "NORMAL": 5,
            "POSITION": 4,
            "TEXCOORD_0": 6
          },
          "indices": 7,
          "material": 1,
          "mode": 4
        }
      ]
    },
    {
      "name": "Object_2",
      "primitives": [
        {
          "attributes": {
            "NORMAL": 9,
            "POSITION": 8,
            "TEXCOORD_0": 10
          },
          "indices": 11,
          "material": 1,
          "mode": 4
        }
      ]
    },
    {
      "name": "Object_3",
      "primitives": [
        {
          "attributes": {
            "NORMAL": 13,
            "POSITION": 12,
            "TEXCOORD_0": 14
          },
          "indices": 15,
          "material": 1,
          "mode": 4
        }
      ]
    },
    {
      "name": "Object_4",
      "primitives": [
        {
          "attributes": {
            "NORMAL": 17,
            "POSITION": 16,
            "TEXCOORD_0": 18
          },
          "indices": 19,
          "material": 1,
          "mode": 4
        }
      ]
    },
    {
      "name": "Object_5",
      "primitives": [
        {
          "attributes": {
            "NORMAL": 21,
            "POSITION": 20,
            "TEXCOORD_0": 22
          },
          "indices": 23,
          "material": 1,
          "mode": 4
        }
      ]
    },
    {
      "name": "Object_6",
      "primitives": [
        {
          "attributes": {
            "NORMAL": 25,
            "POSITION": 24,
            "TEXCOORD_0": 26
          },
          "indices": 27,
          "material": 1,
          "mode": 4
        }
      ]
    },
    {
      "name": "Object_7",
      "primitives": [
        {
          "attributes": {
            "NORMAL": 29,
            "POSITION": 28,
            "TEXCOORD_0": 30
          },
          "indices": 31,
          "material": 1,
          "mode": 4
        }
      ]
    }
  ],
  "nodes": [
    {
      "children": [
        1
      ],
      "matrix": [
        1.0,
        0.0,
        0.0,
        0.0,
        0.0,
        2.220446049250313e-16,
        -1.0,
        0.0,
        0.0,
        1.0,
        2.220446049250313e-16,
        0.0,
        0.0,
        0.0,
        0.0,
        1.0
      ],
      "name": "Sketchfab_model"
    },
    {
      "children": [
        2
      ],
      "name": "root"
    },
    {
      "children": [
        3,
        5
      ],
      "matrix": [
        1.0,
        0.0,
        0.0,
        0.0,
        0.0,
        2.220446049250313e-16,
        1.0,
        0.0,
        0.0,
        -1.0,
        2.220446049250313e-16,
        0.0,
        0.0,
        0.0,
        0.0,
        1.0
      ],
      "name": "GLTF_SceneRootNode"
    },
    {
      "children": [
        4
      ],
      "matrix": [
        -8.984092568070756e-06,
        -0.0048502263973152345,
        1.7299718156038657e-05,
        0.0,
        2.2391946438315038e-05,
        -1.7341046276245198e-05,
        -0.004850184744613401,
        0.0,
        0.004850206958237318,
        -8.904075371971009e-06,
        2.242388406492229e-05,
        0.0,
        0.06430257856845856,
        8.253936539404094e-05,
        -0.0004402188351377845,
        1.0
      ],
      "name": "Cube_0"
    },
    {
      "mesh": 0,
      "name": "Object_4"
    },
    {
      "children": [
        6,
        7,
        8,
        9,
        10,
        11,
        12
      ],
      "matrix": [
        0.01416517415160751,
        0.007164337805479675,
        0.001711947465581585,
        0.0,
        -0.0028896594088857024,
        0.0019915587682717254,
        0.015575436470111018,
        0.0,
        0.006775571475276081,
        -0.014128574469591782,
        0.0030636046908715966,
        0.0,
        0.0008994247764348984,
        -0.0050967419520020485,
        0.00019987158884759992,
        1.0
      ],
      "name": "QS1458-W04-1-1_1"
    },
    {
      "mesh": 1,
      "name": "Object_6"
    },
    {
      "mesh": 2,
      "name": "Object_7"
    },
    {
      "mesh": 3,
      "name": "Object_8"
    },
    {
      "mesh": 4,
      "name": "Object_9"
    },
    {
      "mesh": 5,
      "name": "Object_10"
    },
    {
      "mesh": 6,
      "name": "Object_11"
    },
    {
      "mesh": 7,
      "name": "Object_12"
    }
  ],
  "samplers": [
    {
      "magFilter": 9729,
      "minFilter": 9987,
      "wrapS": 10497,
      "wrapT": 10497
    }
  ],
  "scene": 0,
  "scenes": [
    {
      "name": "Sketchfab_Scene",
      "nodes": [
        0
      ]
    }
  ],
  "textures": [
    {
      "sampler": 0,
      "source": 0
    },
    {
      "sampler": 0,
      "source": 1
    }
  ]
}
